<svg xmlns="http://www.w3.org/2000/svg" viewBox="0 0 80.06 90.04"><defs><style>.cls-1{fill:none;stroke:#000;stroke-miterlimit:10;stroke-width:4px;opacity:0.7;}</style></defs><g id="Capa_2" data-name="Capa 2"><g id="Capa_1-2" data-name="Capa 1"><path class="cls-1" d="M2.06,28a8.2,8.2,0,0,1,1-5,8.11,8.11,0,0,1,3-3c14.33-9.11,25.48-15.28,30-17a13.66,13.66,0,0,1,6-1,13.42,13.42,0,0,1,6,2c12.4,7.16,21.47,13.13,25,16a13.35,13.35,0,0,1,4,5,12.51,12.51,0,0,1,1,5V62a11.52,11.52,0,0,1-4,8l-29,17a10.51,10.51,0,0,1-9,0l-30-18a7.51,7.51,0,0,1-3-3,11.62,11.62,0,0,1-1-4.53,18.06,18.06,0,0,1,0-2.37.77.77,0,0,1,0-.1C2.12,58.25,2.13,49.86,2.06,28Z"/></g></g></svg>